<?xml version="1.0" encoding="UTF-8" standalone="no"?>
<!DOCTYPE svg PUBLIC "-//W3C//DTD SVG 1.1//EN"
 "http://www.w3.org/Graphics/SVG/1.1/DTD/svg11.dtd">
<!-- Generated by graphviz version 2.40.1 (20161225.0304)
 -->
<!-- Title: dependencies Pages: 1 -->
<svg width="2053pt" height="284pt"
 viewBox="0.00 0.00 2053.00 284.00" xmlns="http://www.w3.org/2000/svg" xmlns:xlink="http://www.w3.org/1999/xlink">
<g id="graph0" class="graph" transform="scale(1 1) rotate(0) translate(4 280)">
<title>dependencies</title>
<polygon fill="#ffffff" stroke="transparent" points="-4,4 -4,-280 2049,-280 2049,4 -4,4"/>
<text text-anchor="start" x="1001.5091" y="-42.4" font-family="sans-serif" font-weight="bold" font-size="14.00" fill="#000000">Legend</text>
<polygon fill="#ffffb3" stroke="transparent" points="788.5,-10 788.5,-30 808.5,-30 808.5,-10 788.5,-10"/>
<text text-anchor="start" x="812.129" y="-15.4" font-family="sans-serif" font-size="14.00" fill="#000000"> &#160;Declarations</text>
<polygon fill="#8dd3c7" stroke="transparent" points="901.5,-10 901.5,-30 921.5,-30 921.5,-10 901.5,-10"/>
<text text-anchor="start" x="925.2251" y="-15.4" font-family="sans-serif" font-size="14.00" fill="#000000"> &#160;Module</text>
<polygon fill="#80b1d3" stroke="transparent" points="987.5,-10 987.5,-30 1007.5,-30 1007.5,-10 987.5,-10"/>
<text text-anchor="start" x="1011.2812" y="-15.4" font-family="sans-serif" font-size="14.00" fill="#000000"> &#160;Bootstrap</text>
<polygon fill="#fdb462" stroke="transparent" points="1084.5,-10 1084.5,-30 1104.5,-30 1104.5,-10 1084.5,-10"/>
<text text-anchor="start" x="1108.1732" y="-15.4" font-family="sans-serif" font-size="14.00" fill="#000000"> &#160;Providers</text>
<polygon fill="#fb8072" stroke="transparent" points="1180.5,-10 1180.5,-30 1200.5,-30 1200.5,-10 1180.5,-10"/>
<text text-anchor="start" x="1204.2258" y="-15.4" font-family="sans-serif" font-size="14.00" fill="#000000"> &#160;Exports</text>
<g id="clust1" class="cluster">
<title>cluster_AppModule</title>
<polygon fill="none" stroke="#000000" stroke-dasharray="1,5" points="8,-70 8,-268 2037,-268 2037,-70 8,-70"/>
</g>
<g id="clust2" class="cluster">
<title>cluster_AppModule_declarations</title>
<polygon fill="none" stroke="#000000" points="1621,-78 1621,-130 2029,-130 2029,-78 1621,-78"/>
</g>
<g id="clust6" class="cluster">
<title>cluster_AppModule_imports</title>
<polygon fill="none" stroke="#000000" points="178,-78 178,-130 1613,-130 1613,-78 178,-78"/>
</g>
<g id="clust8" class="cluster">
<title>cluster_AppModule_bootstrap</title>
<polygon fill="none" stroke="#000000" points="941,-208 941,-260 1065,-260 1065,-208 941,-208"/>
</g>
<g id="clust9" class="cluster">
<title>cluster_AppModule_providers</title>
<polygon fill="none" stroke="#000000" points="16,-78 16,-130 170,-130 170,-78 16,-78"/>
</g>
<!-- AppComponent -->
<g id="node1" class="node">
<title>AppComponent</title>
<polygon fill="#ffffb3" stroke="#000000" points="2020.9399,-122 1915.0601,-122 1915.0601,-86 2020.9399,-86 2020.9399,-122"/>
<text text-anchor="middle" x="1968" y="-99.8" font-family="Times,serif" font-size="14.00" fill="#000000">AppComponent</text>
</g>
<!-- AppModule -->
<g id="node4" class="node">
<title>AppModule</title>
<polygon fill="#8dd3c7" stroke="#000000" points="1044.6571,-187 1041.6571,-191 1020.6571,-191 1017.6571,-187 961.3429,-187 961.3429,-151 1044.6571,-151 1044.6571,-187"/>
<text text-anchor="middle" x="1003" y="-164.8" font-family="Times,serif" font-size="14.00" fill="#000000">AppModule</text>
</g>
<!-- AppComponent&#45;&gt;AppModule -->
<g id="edge1" class="edge">
<title>AppComponent&#45;&gt;AppModule</title>
<path fill="none" stroke="#000000" d="M1968,-122.0908C1968,-145.1328 1968,-182 1968,-182 1968,-182 1054.7746,-182 1054.7746,-182"/>
<polygon fill="#000000" stroke="#000000" points="1054.7746,-178.5001 1044.7746,-182 1054.7745,-185.5001 1054.7746,-178.5001"/>
</g>
<!-- UserFormComponent -->
<g id="node2" class="node">
<title>UserFormComponent</title>
<polygon fill="#ffffb3" stroke="#000000" points="1897.0926,-122 1758.9074,-122 1758.9074,-86 1897.0926,-86 1897.0926,-122"/>
<text text-anchor="middle" x="1828" y="-99.8" font-family="Times,serif" font-size="14.00" fill="#000000">UserFormComponent</text>
</g>
<!-- UserFormComponent&#45;&gt;AppModule -->
<g id="edge2" class="edge">
<title>UserFormComponent&#45;&gt;AppModule</title>
<path fill="none" stroke="#000000" d="M1828,-122.0449C1828,-143.6623 1828,-177 1828,-177 1828,-177 1054.7612,-177 1054.7612,-177"/>
<polygon fill="#000000" stroke="#000000" points="1054.7613,-173.5001 1044.7612,-177 1054.7612,-180.5001 1054.7613,-173.5001"/>
</g>
<!-- ChartComponent -->
<g id="node3" class="node">
<title>ChartComponent</title>
<polygon fill="#ffffb3" stroke="#000000" points="1741.4356,-122 1628.5644,-122 1628.5644,-86 1741.4356,-86 1741.4356,-122"/>
<text text-anchor="middle" x="1685" y="-99.8" font-family="Times,serif" font-size="14.00" fill="#000000">ChartComponent</text>
</g>
<!-- ChartComponent&#45;&gt;AppModule -->
<g id="edge3" class="edge">
<title>ChartComponent&#45;&gt;AppModule</title>
<path fill="none" stroke="#000000" d="M1685,-122.2228C1685,-142.3652 1685,-172 1685,-172 1685,-172 1054.8912,-172 1054.8912,-172"/>
<polygon fill="#000000" stroke="#000000" points="1054.8912,-168.5001 1044.8912,-172 1054.8911,-175.5001 1054.8912,-168.5001"/>
</g>
<!-- AppComponent  -->
<g id="node15" class="node">
<title>AppComponent </title>
<polygon fill="#80b1d3" stroke="#000000" points="1057.439,-252 948.561,-252 948.561,-216 1057.439,-216 1057.439,-252"/>
<text text-anchor="middle" x="1003" y="-229.8" font-family="Times,serif" font-size="14.00" fill="#000000">AppComponent </text>
</g>
<!-- AppModule&#45;&gt;AppComponent  -->
<g id="edge14" class="edge">
<title>AppModule&#45;&gt;AppComponent </title>
<path fill="none" stroke="#000000" stroke-dasharray="1,5" d="M1003,-187.1061C1003,-187.1061 1003,-205.991 1003,-205.991"/>
<polygon fill="#000000" stroke="#000000" points="999.5001,-205.9909 1003,-215.991 1006.5001,-205.991 999.5001,-205.9909"/>
</g>
<!-- BrowserModule -->
<g id="node5" class="node">
<title>BrowserModule</title>
<polygon fill="#8dd3c7" stroke="#000000" points="1605.4734,-122 1602.4734,-126 1581.4734,-126 1578.4734,-122 1498.5266,-122 1498.5266,-86 1605.4734,-86 1605.4734,-122"/>
<text text-anchor="middle" x="1552" y="-99.8" font-family="Times,serif" font-size="14.00" fill="#000000">BrowserModule</text>
</g>
<!-- BrowserModule&#45;&gt;AppModule -->
<g id="edge4" class="edge">
<title>BrowserModule&#45;&gt;AppModule</title>
<path fill="none" stroke="#000000" d="M1552,-122.2222C1552,-140.8285 1552,-167 1552,-167 1552,-167 1054.7148,-167 1054.7148,-167"/>
<polygon fill="#000000" stroke="#000000" points="1054.7149,-163.5001 1044.7148,-167 1054.7148,-170.5001 1054.7149,-163.5001"/>
</g>
<!-- AppRoutingModule -->
<g id="node6" class="node">
<title>AppRoutingModule</title>
<polygon fill="#8dd3c7" stroke="#000000" points="1480.2744,-122 1477.2744,-126 1456.2744,-126 1453.2744,-122 1351.7256,-122 1351.7256,-86 1480.2744,-86 1480.2744,-122"/>
<text text-anchor="middle" x="1416" y="-99.8" font-family="Times,serif" font-size="14.00" fill="#000000">AppRoutingModule</text>
</g>
<!-- AppRoutingModule&#45;&gt;AppModule -->
<g id="edge5" class="edge">
<title>AppRoutingModule&#45;&gt;AppModule</title>
<path fill="none" stroke="#000000" d="M1416,-122.0336C1416,-139.0597 1416,-162 1416,-162 1416,-162 1054.8735,-162 1054.8735,-162"/>
<polygon fill="#000000" stroke="#000000" points="1054.8735,-158.5001 1044.8735,-162 1054.8734,-165.5001 1054.8735,-158.5001"/>
</g>
<!-- ReactiveFormsModule -->
<g id="node7" class="node">
<title>ReactiveFormsModule</title>
<polygon fill="#8dd3c7" stroke="#000000" points="1333.3047,-122 1330.3047,-126 1309.3047,-126 1306.3047,-122 1188.6953,-122 1188.6953,-86 1333.3047,-86 1333.3047,-122"/>
<text text-anchor="middle" x="1261" y="-99.8" font-family="Times,serif" font-size="14.00" fill="#000000">ReactiveFormsModule</text>
</g>
<!-- ReactiveFormsModule&#45;&gt;AppModule -->
<g id="edge6" class="edge">
<title>ReactiveFormsModule&#45;&gt;AppModule</title>
<path fill="none" stroke="#000000" d="M1261,-122.2396C1261,-137.5706 1261,-157 1261,-157 1261,-157 1054.7389,-157 1054.7389,-157"/>
<polygon fill="#000000" stroke="#000000" points="1054.7389,-153.5001 1044.7389,-157 1054.7389,-160.5001 1054.7389,-153.5001"/>
</g>
<!-- BrowserAnimationsModule -->
<g id="node8" class="node">
<title>BrowserAnimationsModule</title>
<polygon fill="#8dd3c7" stroke="#000000" points="1171.3019,-122 1168.3019,-126 1147.3019,-126 1144.3019,-122 998.6981,-122 998.6981,-86 1171.3019,-86 1171.3019,-122"/>
<text text-anchor="middle" x="1085" y="-99.8" font-family="Times,serif" font-size="14.00" fill="#000000">BrowserAnimationsModule</text>
</g>
<!-- BrowserAnimationsModule&#45;&gt;AppModule -->
<g id="edge7" class="edge">
<title>BrowserAnimationsModule&#45;&gt;AppModule</title>
<path fill="none" stroke="#000000" d="M1021.8387,-122.1061C1021.8387,-122.1061 1021.8387,-140.991 1021.8387,-140.991"/>
<polygon fill="#000000" stroke="#000000" points="1018.3388,-140.9909 1021.8387,-150.991 1025.3388,-140.991 1018.3388,-140.9909"/>
</g>
<!-- MatButtonModule -->
<g id="node9" class="node">
<title>MatButtonModule</title>
<polygon fill="#8dd3c7" stroke="#000000" points="981.2176,-122 978.2176,-126 957.2176,-126 954.2176,-122 860.7824,-122 860.7824,-86 981.2176,-86 981.2176,-122"/>
<text text-anchor="middle" x="921" y="-99.8" font-family="Times,serif" font-size="14.00" fill="#000000">MatButtonModule</text>
</g>
<!-- MatButtonModule&#45;&gt;AppModule -->
<g id="edge8" class="edge">
<title>MatButtonModule&#45;&gt;AppModule</title>
<path fill="none" stroke="#000000" d="M971.1403,-122.1061C971.1403,-122.1061 971.1403,-140.991 971.1403,-140.991"/>
<polygon fill="#000000" stroke="#000000" points="967.6403,-140.9909 971.1403,-150.991 974.6403,-140.991 967.6403,-140.9909"/>
</g>
<!-- MatInputModule -->
<g id="node10" class="node">
<title>MatInputModule</title>
<polygon fill="#8dd3c7" stroke="#000000" points="842.6513,-122 839.6513,-126 818.6513,-126 815.6513,-122 731.3487,-122 731.3487,-86 842.6513,-86 842.6513,-122"/>
<text text-anchor="middle" x="787" y="-99.8" font-family="Times,serif" font-size="14.00" fill="#000000">MatInputModule</text>
</g>
<!-- MatInputModule&#45;&gt;AppModule -->
<g id="edge9" class="edge">
<title>MatInputModule&#45;&gt;AppModule</title>
<path fill="none" stroke="#000000" d="M787,-122.2396C787,-137.5706 787,-157 787,-157 787,-157 951.0969,-157 951.0969,-157"/>
<polygon fill="#000000" stroke="#000000" points="951.0969,-160.5001 961.0969,-157 951.0969,-153.5001 951.0969,-160.5001"/>
</g>
<!-- MatCardModule -->
<g id="node11" class="node">
<title>MatCardModule</title>
<polygon fill="#8dd3c7" stroke="#000000" points="713.8118,-122 710.8118,-126 689.8118,-126 686.8118,-122 604.1882,-122 604.1882,-86 713.8118,-86 713.8118,-122"/>
<text text-anchor="middle" x="659" y="-99.8" font-family="Times,serif" font-size="14.00" fill="#000000">MatCardModule</text>
</g>
<!-- MatCardModule&#45;&gt;AppModule -->
<g id="edge10" class="edge">
<title>MatCardModule&#45;&gt;AppModule</title>
<path fill="none" stroke="#000000" d="M659,-122.0336C659,-139.0597 659,-162 659,-162 659,-162 951.1628,-162 951.1628,-162"/>
<polygon fill="#000000" stroke="#000000" points="951.1628,-165.5001 961.1628,-162 951.1627,-158.5001 951.1628,-165.5001"/>
</g>
<!-- MatIconModule -->
<g id="node12" class="node">
<title>MatIconModule</title>
<polygon fill="#8dd3c7" stroke="#000000" points="586.4748,-122 583.4748,-126 562.4748,-126 559.4748,-122 479.5252,-122 479.5252,-86 586.4748,-86 586.4748,-122"/>
<text text-anchor="middle" x="533" y="-99.8" font-family="Times,serif" font-size="14.00" fill="#000000">MatIconModule</text>
</g>
<!-- MatIconModule&#45;&gt;AppModule -->
<g id="edge11" class="edge">
<title>MatIconModule&#45;&gt;AppModule</title>
<path fill="none" stroke="#000000" d="M533,-122.2222C533,-140.8285 533,-167 533,-167 533,-167 951.2906,-167 951.2906,-167"/>
<polygon fill="#000000" stroke="#000000" points="951.2907,-170.5001 961.2906,-167 951.2906,-163.5001 951.2907,-170.5001"/>
</g>
<!-- MatFormFieldModule -->
<g id="node13" class="node">
<title>MatFormFieldModule</title>
<polygon fill="#8dd3c7" stroke="#000000" points="461.712,-122 458.712,-126 437.712,-126 434.712,-122 320.288,-122 320.288,-86 461.712,-86 461.712,-122"/>
<text text-anchor="middle" x="391" y="-99.8" font-family="Times,serif" font-size="14.00" fill="#000000">MatFormFieldModule</text>
</g>
<!-- MatFormFieldModule&#45;&gt;AppModule -->
<g id="edge12" class="edge">
<title>MatFormFieldModule&#45;&gt;AppModule</title>
<path fill="none" stroke="#000000" d="M391,-122.2228C391,-142.3652 391,-172 391,-172 391,-172 950.9348,-172 950.9348,-172"/>
<polygon fill="#000000" stroke="#000000" points="950.9348,-175.5001 960.9348,-172 950.9347,-168.5001 950.9348,-175.5001"/>
</g>
<!-- MatSelectModule -->
<g id="node14" class="node">
<title>MatSelectModule</title>
<polygon fill="#8dd3c7" stroke="#000000" points="302.3076,-122 299.3076,-126 278.3076,-126 275.3076,-122 185.6924,-122 185.6924,-86 302.3076,-86 302.3076,-122"/>
<text text-anchor="middle" x="244" y="-99.8" font-family="Times,serif" font-size="14.00" fill="#000000">MatSelectModule</text>
</g>
<!-- MatSelectModule&#45;&gt;AppModule -->
<g id="edge13" class="edge">
<title>MatSelectModule&#45;&gt;AppModule</title>
<path fill="none" stroke="#000000" d="M244,-122.0449C244,-143.6623 244,-177 244,-177 244,-177 951.1117,-177 951.1117,-177"/>
<polygon fill="#000000" stroke="#000000" points="951.1118,-180.5001 961.1117,-177 951.1117,-173.5001 951.1118,-180.5001"/>
</g>
<!-- StorageService -->
<g id="node16" class="node">
<title>StorageService</title>
<ellipse fill="#fdb462" stroke="#000000" cx="93" cy="-104" rx="69.4781" ry="18"/>
<text text-anchor="middle" x="93" y="-99.8" font-family="Times,serif" font-size="14.00" fill="#000000">StorageService</text>
</g>
<!-- StorageService&#45;&gt;AppModule -->
<g id="edge15" class="edge">
<title>StorageService&#45;&gt;AppModule</title>
<path fill="none" stroke="#000000" d="M93,-122.0908C93,-145.1328 93,-182 93,-182 93,-182 951.2347,-182 951.2347,-182"/>
<polygon fill="#000000" stroke="#000000" points="951.2347,-185.5001 961.2347,-182 951.2347,-178.5001 951.2347,-185.5001"/>
</g>
</g>
</svg>
