<?xml version="1.0" encoding="UTF-8" standalone="no"?>
<!DOCTYPE svg PUBLIC "-//W3C//DTD SVG 1.1//EN"
 "http://www.w3.org/Graphics/SVG/1.1/DTD/svg11.dtd">
<!-- Generated by graphviz version 2.40.1 (20161225.0304)
 -->
<!-- Title: dependencies Pages: 1 -->
<svg width="2517pt" height="284pt"
 viewBox="0.00 0.00 2517.00 284.00" xmlns="http://www.w3.org/2000/svg" xmlns:xlink="http://www.w3.org/1999/xlink">
<g id="graph0" class="graph" transform="scale(1 1) rotate(0) translate(4 280)">
<title>dependencies</title>
<polygon fill="#ffffff" stroke="transparent" points="-4,4 -4,-280 2513,-280 2513,4 -4,4"/>
<text text-anchor="start" x="1233.5091" y="-42.4" font-family="sans-serif" font-weight="bold" font-size="14.00" fill="#000000">Legend</text>
<polygon fill="#ffffb3" stroke="transparent" points="1020.5,-10 1020.5,-30 1040.5,-30 1040.5,-10 1020.5,-10"/>
<text text-anchor="start" x="1044.129" y="-15.4" font-family="sans-serif" font-size="14.00" fill="#000000"> &#160;Declarations</text>
<polygon fill="#8dd3c7" stroke="transparent" points="1133.5,-10 1133.5,-30 1153.5,-30 1153.5,-10 1133.5,-10"/>
<text text-anchor="start" x="1157.2251" y="-15.4" font-family="sans-serif" font-size="14.00" fill="#000000"> &#160;Module</text>
<polygon fill="#80b1d3" stroke="transparent" points="1219.5,-10 1219.5,-30 1239.5,-30 1239.5,-10 1219.5,-10"/>
<text text-anchor="start" x="1243.2812" y="-15.4" font-family="sans-serif" font-size="14.00" fill="#000000"> &#160;Bootstrap</text>
<polygon fill="#fdb462" stroke="transparent" points="1316.5,-10 1316.5,-30 1336.5,-30 1336.5,-10 1316.5,-10"/>
<text text-anchor="start" x="1340.1732" y="-15.4" font-family="sans-serif" font-size="14.00" fill="#000000"> &#160;Providers</text>
<polygon fill="#fb8072" stroke="transparent" points="1412.5,-10 1412.5,-30 1432.5,-30 1432.5,-10 1412.5,-10"/>
<text text-anchor="start" x="1436.2258" y="-15.4" font-family="sans-serif" font-size="14.00" fill="#000000"> &#160;Exports</text>
<g id="clust1" class="cluster">
<title>cluster_AppModule</title>
<polygon fill="none" stroke="#000000" stroke-dasharray="1,5" points="8,-70 8,-268 2501,-268 2501,-70 8,-70"/>
</g>
<g id="clust2" class="cluster">
<title>cluster_AppModule_declarations</title>
<polygon fill="none" stroke="#000000" points="1881,-78 1881,-130 2493,-130 2493,-78 1881,-78"/>
</g>
<g id="clust7" class="cluster">
<title>cluster_AppModule_imports</title>
<polygon fill="none" stroke="#000000" points="178,-78 178,-130 1873,-130 1873,-78 178,-78"/>
</g>
<g id="clust9" class="cluster">
<title>cluster_AppModule_bootstrap</title>
<polygon fill="none" stroke="#000000" points="1119,-208 1119,-260 1243,-260 1243,-208 1119,-208"/>
</g>
<g id="clust10" class="cluster">
<title>cluster_AppModule_providers</title>
<polygon fill="none" stroke="#000000" points="16,-78 16,-130 170,-130 170,-78 16,-78"/>
</g>
<!-- AppComponent -->
<g id="node1" class="node">
<title>AppComponent</title>
<polygon fill="#ffffb3" stroke="#000000" points="2484.9399,-122 2379.0601,-122 2379.0601,-86 2484.9399,-86 2484.9399,-122"/>
<text text-anchor="middle" x="2432" y="-99.8" font-family="Times,serif" font-size="14.00" fill="#000000">AppComponent</text>
</g>
<!-- AppModule -->
<g id="node5" class="node">
<title>AppModule</title>
<polygon fill="#8dd3c7" stroke="#000000" points="1222.6571,-187 1219.6571,-191 1198.6571,-191 1195.6571,-187 1139.3429,-187 1139.3429,-151 1222.6571,-151 1222.6571,-187"/>
<text text-anchor="middle" x="1181" y="-164.8" font-family="Times,serif" font-size="14.00" fill="#000000">AppModule</text>
</g>
<!-- AppComponent&#45;&gt;AppModule -->
<g id="edge1" class="edge">
<title>AppComponent&#45;&gt;AppModule</title>
<path fill="none" stroke="#000000" d="M2432,-122.3228C2432,-145.6602 2432,-183 2432,-183 2432,-183 1232.9807,-183 1232.9807,-183"/>
<polygon fill="#000000" stroke="#000000" points="1232.9808,-179.5001 1222.9807,-183 1232.9807,-186.5001 1232.9808,-179.5001"/>
</g>
<!-- UserFormComponent -->
<g id="node2" class="node">
<title>UserFormComponent</title>
<polygon fill="#ffffb3" stroke="#000000" points="2361.0926,-122 2222.9074,-122 2222.9074,-86 2361.0926,-86 2361.0926,-122"/>
<text text-anchor="middle" x="2292" y="-99.8" font-family="Times,serif" font-size="14.00" fill="#000000">UserFormComponent</text>
</g>
<!-- UserFormComponent&#45;&gt;AppModule -->
<g id="edge2" class="edge">
<title>UserFormComponent&#45;&gt;AppModule</title>
<path fill="none" stroke="#000000" d="M2292,-122.1554C2292,-144.3519 2292,-179 2292,-179 2292,-179 1232.8597,-179 1232.8597,-179"/>
<polygon fill="#000000" stroke="#000000" points="1232.8598,-175.5001 1222.8597,-179 1232.8597,-182.5001 1232.8598,-175.5001"/>
</g>
<!-- ChartComponent -->
<g id="node3" class="node">
<title>ChartComponent</title>
<polygon fill="#ffffb3" stroke="#000000" points="2205.4356,-122 2092.5644,-122 2092.5644,-86 2205.4356,-86 2205.4356,-122"/>
<text text-anchor="middle" x="2149" y="-99.8" font-family="Times,serif" font-size="14.00" fill="#000000">ChartComponent</text>
</g>
<!-- ChartComponent&#45;&gt;AppModule -->
<g id="edge3" class="edge">
<title>ChartComponent&#45;&gt;AppModule</title>
<path fill="none" stroke="#000000" d="M2149,-122.2843C2149,-143.3211 2149,-175 2149,-175 2149,-175 1232.9044,-175 1232.9044,-175"/>
<polygon fill="#000000" stroke="#000000" points="1232.9045,-171.5001 1222.9044,-175 1232.9044,-178.5001 1232.9045,-171.5001"/>
</g>
<!-- InstructionsDialogComponent -->
<g id="node4" class="node">
<title>InstructionsDialogComponent</title>
<polygon fill="#ffffb3" stroke="#000000" points="2074.5322,-122 1889.4678,-122 1889.4678,-86 2074.5322,-86 2074.5322,-122"/>
<text text-anchor="middle" x="1982" y="-99.8" font-family="Times,serif" font-size="14.00" fill="#000000">InstructionsDialogComponent</text>
</g>
<!-- InstructionsDialogComponent&#45;&gt;AppModule -->
<g id="edge4" class="edge">
<title>InstructionsDialogComponent&#45;&gt;AppModule</title>
<path fill="none" stroke="#000000" d="M1982,-122.308C1982,-142.1455 1982,-171 1982,-171 1982,-171 1232.6576,-171 1232.6576,-171"/>
<polygon fill="#000000" stroke="#000000" points="1232.6576,-167.5001 1222.6576,-171 1232.6575,-174.5001 1232.6576,-167.5001"/>
</g>
<!-- AppComponent  -->
<g id="node18" class="node">
<title>AppComponent </title>
<polygon fill="#80b1d3" stroke="#000000" points="1235.439,-252 1126.561,-252 1126.561,-216 1235.439,-216 1235.439,-252"/>
<text text-anchor="middle" x="1181" y="-229.8" font-family="Times,serif" font-size="14.00" fill="#000000">AppComponent </text>
</g>
<!-- AppModule&#45;&gt;AppComponent  -->
<g id="edge17" class="edge">
<title>AppModule&#45;&gt;AppComponent </title>
<path fill="none" stroke="#000000" stroke-dasharray="1,5" d="M1181,-187.1061C1181,-187.1061 1181,-205.991 1181,-205.991"/>
<polygon fill="#000000" stroke="#000000" points="1177.5001,-205.9909 1181,-215.991 1184.5001,-205.991 1177.5001,-205.9909"/>
</g>
<!-- BrowserModule -->
<g id="node6" class="node">
<title>BrowserModule</title>
<polygon fill="#8dd3c7" stroke="#000000" points="1865.4734,-122 1862.4734,-126 1841.4734,-126 1838.4734,-122 1758.5266,-122 1758.5266,-86 1865.4734,-86 1865.4734,-122"/>
<text text-anchor="middle" x="1812" y="-99.8" font-family="Times,serif" font-size="14.00" fill="#000000">BrowserModule</text>
</g>
<!-- BrowserModule&#45;&gt;AppModule -->
<g id="edge5" class="edge">
<title>BrowserModule&#45;&gt;AppModule</title>
<path fill="none" stroke="#000000" d="M1812,-122.2222C1812,-140.8285 1812,-167 1812,-167 1812,-167 1232.8903,-167 1232.8903,-167"/>
<polygon fill="#000000" stroke="#000000" points="1232.8904,-163.5001 1222.8903,-167 1232.8903,-170.5001 1232.8904,-163.5001"/>
</g>
<!-- AppRoutingModule -->
<g id="node7" class="node">
<title>AppRoutingModule</title>
<polygon fill="#8dd3c7" stroke="#000000" points="1740.2744,-122 1737.2744,-126 1716.2744,-126 1713.2744,-122 1611.7256,-122 1611.7256,-86 1740.2744,-86 1740.2744,-122"/>
<text text-anchor="middle" x="1676" y="-99.8" font-family="Times,serif" font-size="14.00" fill="#000000">AppRoutingModule</text>
</g>
<!-- AppRoutingModule&#45;&gt;AppModule -->
<g id="edge6" class="edge">
<title>AppRoutingModule&#45;&gt;AppModule</title>
<path fill="none" stroke="#000000" d="M1676,-122.0225C1676,-139.3734 1676,-163 1676,-163 1676,-163 1232.7768,-163 1232.7768,-163"/>
<polygon fill="#000000" stroke="#000000" points="1232.7768,-159.5001 1222.7768,-163 1232.7768,-166.5001 1232.7768,-159.5001"/>
</g>
<!-- ReactiveFormsModule -->
<g id="node8" class="node">
<title>ReactiveFormsModule</title>
<polygon fill="#8dd3c7" stroke="#000000" points="1593.3047,-122 1590.3047,-126 1569.3047,-126 1566.3047,-122 1448.6953,-122 1448.6953,-86 1593.3047,-86 1593.3047,-122"/>
<text text-anchor="middle" x="1521" y="-99.8" font-family="Times,serif" font-size="14.00" fill="#000000">ReactiveFormsModule</text>
</g>
<!-- ReactiveFormsModule&#45;&gt;AppModule -->
<g id="edge7" class="edge">
<title>ReactiveFormsModule&#45;&gt;AppModule</title>
<path fill="none" stroke="#000000" d="M1521,-122.0091C1521,-138.0494 1521,-159 1521,-159 1521,-159 1232.6907,-159 1232.6907,-159"/>
<polygon fill="#000000" stroke="#000000" points="1232.6907,-155.5001 1222.6907,-159 1232.6906,-162.5001 1232.6907,-155.5001"/>
</g>
<!-- BrowserAnimationsModule -->
<g id="node9" class="node">
<title>BrowserAnimationsModule</title>
<polygon fill="#8dd3c7" stroke="#000000" points="1431.3019,-122 1428.3019,-126 1407.3019,-126 1404.3019,-122 1258.6981,-122 1258.6981,-86 1431.3019,-86 1431.3019,-122"/>
<text text-anchor="middle" x="1345" y="-99.8" font-family="Times,serif" font-size="14.00" fill="#000000">BrowserAnimationsModule</text>
</g>
<!-- BrowserAnimationsModule&#45;&gt;AppModule -->
<g id="edge8" class="edge">
<title>BrowserAnimationsModule&#45;&gt;AppModule</title>
<path fill="none" stroke="#000000" d="M1345,-122.1243C1345,-136.7832 1345,-155 1345,-155 1345,-155 1232.8085,-155 1232.8085,-155"/>
<polygon fill="#000000" stroke="#000000" points="1232.8085,-151.5001 1222.8085,-155 1232.8084,-158.5001 1232.8085,-151.5001"/>
</g>
<!-- MatButtonModule -->
<g id="node10" class="node">
<title>MatButtonModule</title>
<polygon fill="#8dd3c7" stroke="#000000" points="1241.2176,-122 1238.2176,-126 1217.2176,-126 1214.2176,-122 1120.7824,-122 1120.7824,-86 1241.2176,-86 1241.2176,-122"/>
<text text-anchor="middle" x="1181" y="-99.8" font-family="Times,serif" font-size="14.00" fill="#000000">MatButtonModule</text>
</g>
<!-- MatButtonModule&#45;&gt;AppModule -->
<g id="edge9" class="edge">
<title>MatButtonModule&#45;&gt;AppModule</title>
<path fill="none" stroke="#000000" d="M1181,-122.1061C1181,-122.1061 1181,-140.991 1181,-140.991"/>
<polygon fill="#000000" stroke="#000000" points="1177.5001,-140.9909 1181,-150.991 1184.5001,-140.991 1177.5001,-140.9909"/>
</g>
<!-- MatInputModule -->
<g id="node11" class="node">
<title>MatInputModule</title>
<polygon fill="#8dd3c7" stroke="#000000" points="1102.6513,-122 1099.6513,-126 1078.6513,-126 1075.6513,-122 991.3487,-122 991.3487,-86 1102.6513,-86 1102.6513,-122"/>
<text text-anchor="middle" x="1047" y="-99.8" font-family="Times,serif" font-size="14.00" fill="#000000">MatInputModule</text>
</g>
<!-- MatInputModule&#45;&gt;AppModule -->
<g id="edge10" class="edge">
<title>MatInputModule&#45;&gt;AppModule</title>
<path fill="none" stroke="#000000" d="M1047,-122.1243C1047,-136.7832 1047,-155 1047,-155 1047,-155 1129.3361,-155 1129.3361,-155"/>
<polygon fill="#000000" stroke="#000000" points="1129.3361,-158.5001 1139.3361,-155 1129.3361,-151.5001 1129.3361,-158.5001"/>
</g>
<!-- MatCardModule -->
<g id="node12" class="node">
<title>MatCardModule</title>
<polygon fill="#8dd3c7" stroke="#000000" points="973.8118,-122 970.8118,-126 949.8118,-126 946.8118,-122 864.1882,-122 864.1882,-86 973.8118,-86 973.8118,-122"/>
<text text-anchor="middle" x="919" y="-99.8" font-family="Times,serif" font-size="14.00" fill="#000000">MatCardModule</text>
</g>
<!-- MatCardModule&#45;&gt;AppModule -->
<g id="edge11" class="edge">
<title>MatCardModule&#45;&gt;AppModule</title>
<path fill="none" stroke="#000000" d="M919,-122.0091C919,-138.0494 919,-159 919,-159 919,-159 1129.1956,-159 1129.1956,-159"/>
<polygon fill="#000000" stroke="#000000" points="1129.1956,-162.5001 1139.1956,-159 1129.1956,-155.5001 1129.1956,-162.5001"/>
</g>
<!-- MatIconModule -->
<g id="node13" class="node">
<title>MatIconModule</title>
<polygon fill="#8dd3c7" stroke="#000000" points="846.4748,-122 843.4748,-126 822.4748,-126 819.4748,-122 739.5252,-122 739.5252,-86 846.4748,-86 846.4748,-122"/>
<text text-anchor="middle" x="793" y="-99.8" font-family="Times,serif" font-size="14.00" fill="#000000">MatIconModule</text>
</g>
<!-- MatIconModule&#45;&gt;AppModule -->
<g id="edge12" class="edge">
<title>MatIconModule&#45;&gt;AppModule</title>
<path fill="none" stroke="#000000" d="M793,-122.0225C793,-139.3734 793,-163 793,-163 793,-163 1129.1086,-163 1129.1086,-163"/>
<polygon fill="#000000" stroke="#000000" points="1129.1086,-166.5001 1139.1086,-163 1129.1085,-159.5001 1129.1086,-166.5001"/>
</g>
<!-- MatFormFieldModule -->
<g id="node14" class="node">
<title>MatFormFieldModule</title>
<polygon fill="#8dd3c7" stroke="#000000" points="721.712,-122 718.712,-126 697.712,-126 694.712,-122 580.288,-122 580.288,-86 721.712,-86 721.712,-122"/>
<text text-anchor="middle" x="651" y="-99.8" font-family="Times,serif" font-size="14.00" fill="#000000">MatFormFieldModule</text>
</g>
<!-- MatFormFieldModule&#45;&gt;AppModule -->
<g id="edge13" class="edge">
<title>MatFormFieldModule&#45;&gt;AppModule</title>
<path fill="none" stroke="#000000" d="M651,-122.2222C651,-140.8285 651,-167 651,-167 651,-167 1128.9688,-167 1128.9688,-167"/>
<polygon fill="#000000" stroke="#000000" points="1128.9688,-170.5001 1138.9688,-167 1128.9687,-163.5001 1128.9688,-170.5001"/>
</g>
<!-- MatSelectModule -->
<g id="node15" class="node">
<title>MatSelectModule</title>
<polygon fill="#8dd3c7" stroke="#000000" points="562.3076,-122 559.3076,-126 538.3076,-126 535.3076,-122 445.6924,-122 445.6924,-86 562.3076,-86 562.3076,-122"/>
<text text-anchor="middle" x="504" y="-99.8" font-family="Times,serif" font-size="14.00" fill="#000000">MatSelectModule</text>
</g>
<!-- MatSelectModule&#45;&gt;AppModule -->
<g id="edge14" class="edge">
<title>MatSelectModule&#45;&gt;AppModule</title>
<path fill="none" stroke="#000000" d="M504,-122.308C504,-142.1455 504,-171 504,-171 504,-171 1129.1615,-171 1129.1615,-171"/>
<polygon fill="#000000" stroke="#000000" points="1129.1616,-174.5001 1139.1615,-171 1129.1615,-167.5001 1129.1616,-174.5001"/>
</g>
<!-- MatDialogModule -->
<g id="node16" class="node">
<title>MatDialogModule</title>
<polygon fill="#8dd3c7" stroke="#000000" points="428.2022,-122 425.2022,-126 404.2022,-126 401.2022,-122 307.7978,-122 307.7978,-86 428.2022,-86 428.2022,-122"/>
<text text-anchor="middle" x="368" y="-99.8" font-family="Times,serif" font-size="14.00" fill="#000000">MatDialogModule</text>
</g>
<!-- MatDialogModule&#45;&gt;AppModule -->
<g id="edge15" class="edge">
<title>MatDialogModule&#45;&gt;AppModule</title>
<path fill="none" stroke="#000000" d="M368,-122.2843C368,-143.3211 368,-175 368,-175 368,-175 1129.284,-175 1129.284,-175"/>
<polygon fill="#000000" stroke="#000000" points="1129.284,-178.5001 1139.284,-175 1129.2839,-171.5001 1129.284,-178.5001"/>
</g>
<!-- MatListModule -->
<g id="node17" class="node">
<title>MatListModule</title>
<polygon fill="#8dd3c7" stroke="#000000" points="289.8781,-122 286.8781,-126 265.8781,-126 262.8781,-122 186.1219,-122 186.1219,-86 289.8781,-86 289.8781,-122"/>
<text text-anchor="middle" x="238" y="-99.8" font-family="Times,serif" font-size="14.00" fill="#000000">MatListModule</text>
</g>
<!-- MatListModule&#45;&gt;AppModule -->
<g id="edge16" class="edge">
<title>MatListModule&#45;&gt;AppModule</title>
<path fill="none" stroke="#000000" d="M238,-122.1554C238,-144.3519 238,-179 238,-179 238,-179 1129.2637,-179 1129.2637,-179"/>
<polygon fill="#000000" stroke="#000000" points="1129.2637,-182.5001 1139.2637,-179 1129.2637,-175.5001 1129.2637,-182.5001"/>
</g>
<!-- StorageService -->
<g id="node19" class="node">
<title>StorageService</title>
<ellipse fill="#fdb462" stroke="#000000" cx="93" cy="-104" rx="69.4781" ry="18"/>
<text text-anchor="middle" x="93" y="-99.8" font-family="Times,serif" font-size="14.00" fill="#000000">StorageService</text>
</g>
<!-- StorageService&#45;&gt;AppModule -->
<g id="edge18" class="edge">
<title>StorageService&#45;&gt;AppModule</title>
<path fill="none" stroke="#000000" d="M93,-122.3228C93,-145.6602 93,-183 93,-183 93,-183 1129.0158,-183 1129.0158,-183"/>
<polygon fill="#000000" stroke="#000000" points="1129.0158,-186.5001 1139.0158,-183 1129.0157,-179.5001 1129.0158,-186.5001"/>
</g>
</g>
</svg>
