<?xml version="1.0" encoding="UTF-8" standalone="no"?>
<!DOCTYPE svg PUBLIC "-//W3C//DTD SVG 1.1//EN"
 "http://www.w3.org/Graphics/SVG/1.1/DTD/svg11.dtd">
<!-- Generated by graphviz version 2.40.1 (20161225.0304)
 -->
<!-- Title: dependencies Pages: 1 -->
<svg width="2860pt" height="290pt"
 viewBox="0.00 0.00 2860.00 290.00" xmlns="http://www.w3.org/2000/svg" xmlns:xlink="http://www.w3.org/1999/xlink">
<g id="graph0" class="graph" transform="scale(1 1) rotate(0) translate(4 286)">
<title>dependencies</title>
<polygon fill="#ffffff" stroke="transparent" points="-4,4 -4,-286 2856,-286 2856,4 -4,4"/>
<text text-anchor="start" x="1405.0091" y="-42.4" font-family="sans-serif" font-weight="bold" font-size="14.00" fill="#000000">Legend</text>
<polygon fill="#ffffb3" stroke="transparent" points="1192,-10 1192,-30 1212,-30 1212,-10 1192,-10"/>
<text text-anchor="start" x="1215.629" y="-15.4" font-family="sans-serif" font-size="14.00" fill="#000000"> &#160;Declarations</text>
<polygon fill="#8dd3c7" stroke="transparent" points="1305,-10 1305,-30 1325,-30 1325,-10 1305,-10"/>
<text text-anchor="start" x="1328.7251" y="-15.4" font-family="sans-serif" font-size="14.00" fill="#000000"> &#160;Module</text>
<polygon fill="#80b1d3" stroke="transparent" points="1391,-10 1391,-30 1411,-30 1411,-10 1391,-10"/>
<text text-anchor="start" x="1414.7812" y="-15.4" font-family="sans-serif" font-size="14.00" fill="#000000"> &#160;Bootstrap</text>
<polygon fill="#fdb462" stroke="transparent" points="1488,-10 1488,-30 1508,-30 1508,-10 1488,-10"/>
<text text-anchor="start" x="1511.6732" y="-15.4" font-family="sans-serif" font-size="14.00" fill="#000000"> &#160;Providers</text>
<polygon fill="#fb8072" stroke="transparent" points="1584,-10 1584,-30 1604,-30 1604,-10 1584,-10"/>
<text text-anchor="start" x="1607.7258" y="-15.4" font-family="sans-serif" font-size="14.00" fill="#000000"> &#160;Exports</text>
<g id="clust1" class="cluster">
<title>cluster_AppModule</title>
<polygon fill="none" stroke="#000000" stroke-dasharray="1,5" points="8,-70 8,-274 2500,-274 2500,-70 8,-70"/>
</g>
<g id="clust2" class="cluster">
<title>cluster_AppModule_declarations</title>
<polygon fill="none" stroke="#000000" points="178,-78 178,-130 790,-130 790,-78 178,-78"/>
</g>
<g id="clust7" class="cluster">
<title>cluster_AppModule_imports</title>
<polygon fill="none" stroke="#000000" points="798,-78 798,-130 2492,-130 2492,-78 798,-78"/>
</g>
<g id="clust9" class="cluster">
<title>cluster_AppModule_bootstrap</title>
<polygon fill="none" stroke="#000000" points="1229,-214 1229,-266 1353,-266 1353,-214 1229,-214"/>
</g>
<g id="clust10" class="cluster">
<title>cluster_AppModule_providers</title>
<polygon fill="none" stroke="#000000" points="16,-78 16,-130 170,-130 170,-78 16,-78"/>
</g>
<g id="clust11" class="cluster">
<title>cluster_AppRoutingModule</title>
<polygon fill="none" stroke="#000000" stroke-dasharray="1,5" points="2508,-138 2508,-206 2844,-206 2844,-138 2508,-138"/>
</g>
<g id="clust13" class="cluster">
<title>cluster_AppRoutingModule_imports</title>
<polygon fill="none" stroke="#000000" points="2642,-146 2642,-198 2836,-198 2836,-146 2642,-146"/>
</g>
<g id="clust14" class="cluster">
<title>cluster_AppRoutingModule_exports</title>
<polygon fill="none" stroke="#000000" points="2516,-146 2516,-198 2634,-198 2634,-146 2516,-146"/>
</g>
<!-- AppComponent -->
<g id="node1" class="node">
<title>AppComponent</title>
<polygon fill="#ffffb3" stroke="#000000" points="781.9399,-122 676.0601,-122 676.0601,-86 781.9399,-86 781.9399,-122"/>
<text text-anchor="middle" x="729" y="-99.8" font-family="Times,serif" font-size="14.00" fill="#000000">AppComponent</text>
</g>
<!-- AppModule -->
<g id="node5" class="node">
<title>AppModule</title>
<polygon fill="#8dd3c7" stroke="#000000" points="1332.6571,-190 1329.6571,-194 1308.6571,-194 1305.6571,-190 1249.3429,-190 1249.3429,-154 1332.6571,-154 1332.6571,-190"/>
<text text-anchor="middle" x="1291" y="-167.8" font-family="Times,serif" font-size="14.00" fill="#000000">AppModule</text>
</g>
<!-- AppComponent&#45;&gt;AppModule -->
<g id="edge1" class="edge">
<title>AppComponent&#45;&gt;AppModule</title>
<path fill="none" stroke="#000000" d="M729,-122.0348C729,-141.5762 729,-170 729,-170 729,-170 1239.2178,-170 1239.2178,-170"/>
<polygon fill="#000000" stroke="#000000" points="1239.2178,-173.5001 1249.2178,-170 1239.2178,-166.5001 1239.2178,-173.5001"/>
</g>
<!-- UserFormComponent -->
<g id="node2" class="node">
<title>UserFormComponent</title>
<polygon fill="#ffffb3" stroke="#000000" points="658.0926,-122 519.9074,-122 519.9074,-86 658.0926,-86 658.0926,-122"/>
<text text-anchor="middle" x="589" y="-99.8" font-family="Times,serif" font-size="14.00" fill="#000000">UserFormComponent</text>
</g>
<!-- UserFormComponent&#45;&gt;AppModule -->
<g id="edge2" class="edge">
<title>UserFormComponent&#45;&gt;AppModule</title>
<path fill="none" stroke="#000000" d="M589,-122.0267C589,-142.7672 589,-174 589,-174 589,-174 1239.189,-174 1239.189,-174"/>
<polygon fill="#000000" stroke="#000000" points="1239.189,-177.5001 1249.189,-174 1239.189,-170.5001 1239.189,-177.5001"/>
</g>
<!-- ChartComponent -->
<g id="node3" class="node">
<title>ChartComponent</title>
<polygon fill="#ffffb3" stroke="#000000" points="502.4356,-122 389.5644,-122 389.5644,-86 502.4356,-86 502.4356,-122"/>
<text text-anchor="middle" x="446" y="-99.8" font-family="Times,serif" font-size="14.00" fill="#000000">ChartComponent</text>
</g>
<!-- ChartComponent&#45;&gt;AppModule -->
<g id="edge3" class="edge">
<title>ChartComponent&#45;&gt;AppModule</title>
<path fill="none" stroke="#000000" d="M446,-122.2921C446,-144.2057 446,-178 446,-178 446,-178 1239.0963,-178 1239.0963,-178"/>
<polygon fill="#000000" stroke="#000000" points="1239.0964,-181.5001 1249.0963,-178 1239.0963,-174.5001 1239.0964,-181.5001"/>
</g>
<!-- InstructionsDialogComponent -->
<g id="node4" class="node">
<title>InstructionsDialogComponent</title>
<polygon fill="#ffffb3" stroke="#000000" points="371.5322,-122 186.4678,-122 186.4678,-86 371.5322,-86 371.5322,-122"/>
<text text-anchor="middle" x="279" y="-99.8" font-family="Times,serif" font-size="14.00" fill="#000000">InstructionsDialogComponent</text>
</g>
<!-- InstructionsDialogComponent&#45;&gt;AppModule -->
<g id="edge4" class="edge">
<title>InstructionsDialogComponent&#45;&gt;AppModule</title>
<path fill="none" stroke="#000000" d="M279,-122.0908C279,-145.1328 279,-182 279,-182 279,-182 1239.1234,-182 1239.1234,-182"/>
<polygon fill="#000000" stroke="#000000" points="1239.1235,-185.5001 1249.1234,-182 1239.1234,-178.5001 1239.1235,-185.5001"/>
</g>
<!-- AppComponent  -->
<g id="node18" class="node">
<title>AppComponent </title>
<polygon fill="#80b1d3" stroke="#000000" points="1345.439,-258 1236.561,-258 1236.561,-222 1345.439,-222 1345.439,-258"/>
<text text-anchor="middle" x="1291" y="-235.8" font-family="Times,serif" font-size="14.00" fill="#000000">AppComponent </text>
</g>
<!-- AppModule&#45;&gt;AppComponent  -->
<g id="edge17" class="edge">
<title>AppModule&#45;&gt;AppComponent </title>
<path fill="none" stroke="#000000" stroke-dasharray="1,5" d="M1291,-190.2228C1291,-190.2228 1291,-211.7269 1291,-211.7269"/>
<polygon fill="#000000" stroke="#000000" points="1287.5001,-211.7269 1291,-221.7269 1294.5001,-211.727 1287.5001,-211.7269"/>
</g>
<!-- BrowserModule -->
<g id="node6" class="node">
<title>BrowserModule</title>
<polygon fill="#8dd3c7" stroke="#000000" points="2337.4734,-122 2334.4734,-126 2313.4734,-126 2310.4734,-122 2230.5266,-122 2230.5266,-86 2337.4734,-86 2337.4734,-122"/>
<text text-anchor="middle" x="2284" y="-99.8" font-family="Times,serif" font-size="14.00" fill="#000000">BrowserModule</text>
</g>
<!-- BrowserModule&#45;&gt;AppModule -->
<g id="edge5" class="edge">
<title>BrowserModule&#45;&gt;AppModule</title>
<path fill="none" stroke="#000000" d="M2284,-122.0908C2284,-145.1328 2284,-182 2284,-182 2284,-182 1342.7182,-182 1342.7182,-182"/>
<polygon fill="#000000" stroke="#000000" points="1342.7182,-178.5001 1332.7182,-182 1342.7182,-185.5001 1342.7182,-178.5001"/>
</g>
<!-- AppRoutingModule -->
<g id="node7" class="node">
<title>AppRoutingModule</title>
<polygon fill="#8dd3c7" stroke="#000000" points="2484.2744,-122 2481.2744,-126 2460.2744,-126 2457.2744,-122 2355.7256,-122 2355.7256,-86 2484.2744,-86 2484.2744,-122"/>
<text text-anchor="middle" x="2420" y="-99.8" font-family="Times,serif" font-size="14.00" fill="#000000">AppRoutingModule</text>
</g>
<!-- AppRoutingModule&#45;&gt;AppModule -->
<g id="edge6" class="edge">
<title>AppRoutingModule&#45;&gt;AppModule</title>
<path fill="none" stroke="#000000" d="M2420,-122.1985C2420,-146.3563 2420,-186 2420,-186 2420,-186 1342.8585,-186 1342.8585,-186"/>
<polygon fill="#000000" stroke="#000000" points="1342.8586,-182.5001 1332.8585,-186 1342.8585,-189.5001 1342.8586,-182.5001"/>
</g>
<!-- RouterModule  -->
<g id="node21" class="node">
<title>RouterModule </title>
<polygon fill="#fb8072" stroke="#000000" points="2625.6523,-190 2524.3477,-190 2524.3477,-154 2625.6523,-154 2625.6523,-190"/>
<text text-anchor="middle" x="2575" y="-167.8" font-family="Times,serif" font-size="14.00" fill="#000000">RouterModule </text>
</g>
<!-- AppRoutingModule&#45;&gt;RouterModule  -->
<g id="edge20" class="edge">
<title>AppRoutingModule&#45;&gt;RouterModule </title>
<path fill="none" stroke="#000000" stroke-dasharray="5,2" d="M2484.3874,-110C2526.9734,-110 2575,-110 2575,-110 2575,-110 2575,-143.7333 2575,-143.7333"/>
<polygon fill="#000000" stroke="#000000" points="2571.5001,-143.7333 2575,-153.7333 2578.5001,-143.7333 2571.5001,-143.7333"/>
</g>
<!-- ReactiveFormsModule -->
<g id="node8" class="node">
<title>ReactiveFormsModule</title>
<polygon fill="#8dd3c7" stroke="#000000" points="2091.3047,-122 2088.3047,-126 2067.3047,-126 2064.3047,-122 1946.6953,-122 1946.6953,-86 2091.3047,-86 2091.3047,-122"/>
<text text-anchor="middle" x="2019" y="-99.8" font-family="Times,serif" font-size="14.00" fill="#000000">ReactiveFormsModule</text>
</g>
<!-- ReactiveFormsModule&#45;&gt;AppModule -->
<g id="edge7" class="edge">
<title>ReactiveFormsModule&#45;&gt;AppModule</title>
<path fill="none" stroke="#000000" d="M2019,-122.0267C2019,-142.7672 2019,-174 2019,-174 2019,-174 1342.7552,-174 1342.7552,-174"/>
<polygon fill="#000000" stroke="#000000" points="1342.7552,-170.5001 1332.7552,-174 1342.7552,-177.5001 1342.7552,-170.5001"/>
</g>
<!-- BrowserAnimationsModule -->
<g id="node9" class="node">
<title>BrowserAnimationsModule</title>
<polygon fill="#8dd3c7" stroke="#000000" points="1929.3019,-122 1926.3019,-126 1905.3019,-126 1902.3019,-122 1756.6981,-122 1756.6981,-86 1929.3019,-86 1929.3019,-122"/>
<text text-anchor="middle" x="1843" y="-99.8" font-family="Times,serif" font-size="14.00" fill="#000000">BrowserAnimationsModule</text>
</g>
<!-- BrowserAnimationsModule&#45;&gt;AppModule -->
<g id="edge8" class="edge">
<title>BrowserAnimationsModule&#45;&gt;AppModule</title>
<path fill="none" stroke="#000000" d="M1843,-122.0348C1843,-141.5762 1843,-170 1843,-170 1843,-170 1342.9428,-170 1342.9428,-170"/>
<polygon fill="#000000" stroke="#000000" points="1342.9428,-166.5001 1332.9428,-170 1342.9428,-173.5001 1342.9428,-166.5001"/>
</g>
<!-- MatButtonModule -->
<g id="node10" class="node">
<title>MatButtonModule</title>
<polygon fill="#8dd3c7" stroke="#000000" points="1739.2176,-122 1736.2176,-126 1715.2176,-126 1712.2176,-122 1618.7824,-122 1618.7824,-86 1739.2176,-86 1739.2176,-122"/>
<text text-anchor="middle" x="1679" y="-99.8" font-family="Times,serif" font-size="14.00" fill="#000000">MatButtonModule</text>
</g>
<!-- MatButtonModule&#45;&gt;AppModule -->
<g id="edge9" class="edge">
<title>MatButtonModule&#45;&gt;AppModule</title>
<path fill="none" stroke="#000000" d="M1679,-122.2667C1679,-140.5552 1679,-166 1679,-166 1679,-166 1342.8914,-166 1342.8914,-166"/>
<polygon fill="#000000" stroke="#000000" points="1342.8915,-162.5001 1332.8914,-166 1342.8914,-169.5001 1342.8915,-162.5001"/>
</g>
<!-- MatInputModule -->
<g id="node11" class="node">
<title>MatInputModule</title>
<polygon fill="#8dd3c7" stroke="#000000" points="1600.6513,-122 1597.6513,-126 1576.6513,-126 1573.6513,-122 1489.3487,-122 1489.3487,-86 1600.6513,-86 1600.6513,-122"/>
<text text-anchor="middle" x="1545" y="-99.8" font-family="Times,serif" font-size="14.00" fill="#000000">MatInputModule</text>
</g>
<!-- MatInputModule&#45;&gt;AppModule -->
<g id="edge10" class="edge">
<title>MatInputModule&#45;&gt;AppModule</title>
<path fill="none" stroke="#000000" d="M1545,-122.0336C1545,-139.0597 1545,-162 1545,-162 1545,-162 1342.6585,-162 1342.6585,-162"/>
<polygon fill="#000000" stroke="#000000" points="1342.6585,-158.5001 1332.6585,-162 1342.6585,-165.5001 1342.6585,-158.5001"/>
</g>
<!-- MatCardModule -->
<g id="node12" class="node">
<title>MatCardModule</title>
<polygon fill="#8dd3c7" stroke="#000000" points="1471.8118,-122 1468.8118,-126 1447.8118,-126 1444.8118,-122 1362.1882,-122 1362.1882,-86 1471.8118,-86 1471.8118,-122"/>
<text text-anchor="middle" x="1417" y="-99.8" font-family="Times,serif" font-size="14.00" fill="#000000">MatCardModule</text>
</g>
<!-- MatCardModule&#45;&gt;AppModule -->
<g id="edge11" class="edge">
<title>MatCardModule&#45;&gt;AppModule</title>
<path fill="none" stroke="#000000" d="M1417,-122.2819C1417,-137.9478 1417,-158 1417,-158 1417,-158 1342.9562,-158 1342.9562,-158"/>
<polygon fill="#000000" stroke="#000000" points="1342.9562,-154.5001 1332.9562,-158 1342.9561,-161.5001 1342.9562,-154.5001"/>
</g>
<!-- MatIconModule -->
<g id="node13" class="node">
<title>MatIconModule</title>
<polygon fill="#8dd3c7" stroke="#000000" points="1344.4748,-122 1341.4748,-126 1320.4748,-126 1317.4748,-122 1237.5252,-122 1237.5252,-86 1344.4748,-86 1344.4748,-122"/>
<text text-anchor="middle" x="1291" y="-99.8" font-family="Times,serif" font-size="14.00" fill="#000000">MatIconModule</text>
</g>
<!-- MatIconModule&#45;&gt;AppModule -->
<g id="edge12" class="edge">
<title>MatIconModule&#45;&gt;AppModule</title>
<path fill="none" stroke="#000000" d="M1291,-122.2228C1291,-122.2228 1291,-143.7269 1291,-143.7269"/>
<polygon fill="#000000" stroke="#000000" points="1287.5001,-143.7269 1291,-153.7269 1294.5001,-143.727 1287.5001,-143.7269"/>
</g>
<!-- MatFormFieldModule -->
<g id="node14" class="node">
<title>MatFormFieldModule</title>
<polygon fill="#8dd3c7" stroke="#000000" points="1219.712,-122 1216.712,-126 1195.712,-126 1192.712,-122 1078.288,-122 1078.288,-86 1219.712,-86 1219.712,-122"/>
<text text-anchor="middle" x="1149" y="-99.8" font-family="Times,serif" font-size="14.00" fill="#000000">MatFormFieldModule</text>
</g>
<!-- MatFormFieldModule&#45;&gt;AppModule -->
<g id="edge13" class="edge">
<title>MatFormFieldModule&#45;&gt;AppModule</title>
<path fill="none" stroke="#000000" d="M1149,-122.2819C1149,-137.9478 1149,-158 1149,-158 1149,-158 1239.1633,-158 1239.1633,-158"/>
<polygon fill="#000000" stroke="#000000" points="1239.1634,-161.5001 1249.1633,-158 1239.1633,-154.5001 1239.1634,-161.5001"/>
</g>
<!-- MatSelectModule -->
<g id="node15" class="node">
<title>MatSelectModule</title>
<polygon fill="#8dd3c7" stroke="#000000" points="1060.3076,-122 1057.3076,-126 1036.3076,-126 1033.3076,-122 943.6924,-122 943.6924,-86 1060.3076,-86 1060.3076,-122"/>
<text text-anchor="middle" x="1002" y="-99.8" font-family="Times,serif" font-size="14.00" fill="#000000">MatSelectModule</text>
</g>
<!-- MatSelectModule&#45;&gt;AppModule -->
<g id="edge14" class="edge">
<title>MatSelectModule&#45;&gt;AppModule</title>
<path fill="none" stroke="#000000" d="M1002,-122.0336C1002,-139.0597 1002,-162 1002,-162 1002,-162 1239.2856,-162 1239.2856,-162"/>
<polygon fill="#000000" stroke="#000000" points="1239.2856,-165.5001 1249.2856,-162 1239.2855,-158.5001 1239.2856,-165.5001"/>
</g>
<!-- MatDialogModule -->
<g id="node16" class="node">
<title>MatDialogModule</title>
<polygon fill="#8dd3c7" stroke="#000000" points="926.2022,-122 923.2022,-126 902.2022,-126 899.2022,-122 805.7978,-122 805.7978,-86 926.2022,-86 926.2022,-122"/>
<text text-anchor="middle" x="866" y="-99.8" font-family="Times,serif" font-size="14.00" fill="#000000">MatDialogModule</text>
</g>
<!-- MatDialogModule&#45;&gt;AppModule -->
<g id="edge15" class="edge">
<title>MatDialogModule&#45;&gt;AppModule</title>
<path fill="none" stroke="#000000" d="M866,-122.2667C866,-140.5552 866,-166 866,-166 866,-166 1239.0862,-166 1239.0862,-166"/>
<polygon fill="#000000" stroke="#000000" points="1239.0863,-169.5001 1249.0862,-166 1239.0862,-162.5001 1239.0863,-169.5001"/>
</g>
<!-- MatListModule -->
<g id="node17" class="node">
<title>MatListModule</title>
<polygon fill="#8dd3c7" stroke="#000000" points="2212.8781,-122 2209.8781,-126 2188.8781,-126 2185.8781,-122 2109.1219,-122 2109.1219,-86 2212.8781,-86 2212.8781,-122"/>
<text text-anchor="middle" x="2161" y="-99.8" font-family="Times,serif" font-size="14.00" fill="#000000">MatListModule</text>
</g>
<!-- MatListModule&#45;&gt;AppModule -->
<g id="edge16" class="edge">
<title>MatListModule&#45;&gt;AppModule</title>
<path fill="none" stroke="#000000" d="M2161,-122.2921C2161,-144.2057 2161,-178 2161,-178 2161,-178 1342.6688,-178 1342.6688,-178"/>
<polygon fill="#000000" stroke="#000000" points="1342.6688,-174.5001 1332.6688,-178 1342.6688,-181.5001 1342.6688,-174.5001"/>
</g>
<!-- StorageService -->
<g id="node19" class="node">
<title>StorageService</title>
<ellipse fill="#fdb462" stroke="#000000" cx="93" cy="-104" rx="69.4781" ry="18"/>
<text text-anchor="middle" x="93" y="-99.8" font-family="Times,serif" font-size="14.00" fill="#000000">StorageService</text>
</g>
<!-- StorageService&#45;&gt;AppModule -->
<g id="edge18" class="edge">
<title>StorageService&#45;&gt;AppModule</title>
<path fill="none" stroke="#000000" d="M93,-122.1985C93,-146.3563 93,-186 93,-186 93,-186 1239.065,-186 1239.065,-186"/>
<polygon fill="#000000" stroke="#000000" points="1239.065,-189.5001 1249.065,-186 1239.065,-182.5001 1239.065,-189.5001"/>
</g>
<!-- RouterModule.forRoot(args) -->
<g id="node20" class="node">
<title>RouterModule.forRoot(args)</title>
<polygon fill="#8dd3c7" stroke="#000000" points="2827.8419,-190 2824.8419,-194 2803.8419,-194 2800.8419,-190 2650.1581,-190 2650.1581,-154 2827.8419,-154 2827.8419,-190"/>
<text text-anchor="middle" x="2739" y="-167.8" font-family="Times,serif" font-size="14.00" fill="#000000">RouterModule.forRoot(args)</text>
</g>
<!-- RouterModule.forRoot(args)&#45;&gt;AppRoutingModule -->
<g id="edge19" class="edge">
<title>RouterModule.forRoot(args)&#45;&gt;AppRoutingModule</title>
<path fill="none" stroke="#000000" d="M2739,-153.7079C2739,-131.7943 2739,-98 2739,-98 2739,-98 2494.5544,-98 2494.5544,-98"/>
<polygon fill="#000000" stroke="#000000" points="2494.5544,-94.5001 2484.5544,-98 2494.5544,-101.5001 2494.5544,-94.5001"/>
</g>
</g>
</svg>
