<?xml version="1.0" encoding="UTF-8" standalone="no"?>
<!DOCTYPE svg PUBLIC "-//W3C//DTD SVG 1.1//EN"
 "http://www.w3.org/Graphics/SVG/1.1/DTD/svg11.dtd">
<!-- Generated by graphviz version 2.40.1 (20161225.0304)
 -->
<!-- Title: dependencies Pages: 1 -->
<svg width="2397pt" height="290pt"
 viewBox="0.00 0.00 2397.00 290.00" xmlns="http://www.w3.org/2000/svg" xmlns:xlink="http://www.w3.org/1999/xlink">
<g id="graph0" class="graph" transform="scale(1 1) rotate(0) translate(4 286)">
<title>dependencies</title>
<polygon fill="#ffffff" stroke="transparent" points="-4,4 -4,-286 2393,-286 2393,4 -4,4"/>
<text text-anchor="start" x="1173.5091" y="-42.4" font-family="sans-serif" font-weight="bold" font-size="14.00" fill="#000000">Legend</text>
<polygon fill="#ffffb3" stroke="transparent" points="960.5,-10 960.5,-30 980.5,-30 980.5,-10 960.5,-10"/>
<text text-anchor="start" x="984.129" y="-15.4" font-family="sans-serif" font-size="14.00" fill="#000000"> &#160;Declarations</text>
<polygon fill="#8dd3c7" stroke="transparent" points="1073.5,-10 1073.5,-30 1093.5,-30 1093.5,-10 1073.5,-10"/>
<text text-anchor="start" x="1097.2251" y="-15.4" font-family="sans-serif" font-size="14.00" fill="#000000"> &#160;Module</text>
<polygon fill="#80b1d3" stroke="transparent" points="1159.5,-10 1159.5,-30 1179.5,-30 1179.5,-10 1159.5,-10"/>
<text text-anchor="start" x="1183.2812" y="-15.4" font-family="sans-serif" font-size="14.00" fill="#000000"> &#160;Bootstrap</text>
<polygon fill="#fdb462" stroke="transparent" points="1256.5,-10 1256.5,-30 1276.5,-30 1276.5,-10 1256.5,-10"/>
<text text-anchor="start" x="1280.1732" y="-15.4" font-family="sans-serif" font-size="14.00" fill="#000000"> &#160;Providers</text>
<polygon fill="#fb8072" stroke="transparent" points="1352.5,-10 1352.5,-30 1372.5,-30 1372.5,-10 1352.5,-10"/>
<text text-anchor="start" x="1376.2258" y="-15.4" font-family="sans-serif" font-size="14.00" fill="#000000"> &#160;Exports</text>
<g id="clust1" class="cluster">
<title>cluster_AppModule</title>
<polygon fill="none" stroke="#000000" stroke-dasharray="1,5" points="8,-70 8,-274 2037,-274 2037,-70 8,-70"/>
</g>
<g id="clust2" class="cluster">
<title>cluster_AppModule_declarations</title>
<polygon fill="none" stroke="#000000" points="178,-78 178,-130 586,-130 586,-78 178,-78"/>
</g>
<g id="clust6" class="cluster">
<title>cluster_AppModule_imports</title>
<polygon fill="none" stroke="#000000" points="594,-78 594,-130 2029,-130 2029,-78 594,-78"/>
</g>
<g id="clust8" class="cluster">
<title>cluster_AppModule_bootstrap</title>
<polygon fill="none" stroke="#000000" points="943,-214 943,-266 1067,-266 1067,-214 943,-214"/>
</g>
<g id="clust9" class="cluster">
<title>cluster_AppModule_providers</title>
<polygon fill="none" stroke="#000000" points="16,-78 16,-130 170,-130 170,-78 16,-78"/>
</g>
<g id="clust10" class="cluster">
<title>cluster_AppRoutingModule</title>
<polygon fill="none" stroke="#000000" stroke-dasharray="1,5" points="2045,-138 2045,-206 2381,-206 2381,-138 2045,-138"/>
</g>
<g id="clust12" class="cluster">
<title>cluster_AppRoutingModule_imports</title>
<polygon fill="none" stroke="#000000" points="2179,-146 2179,-198 2373,-198 2373,-146 2179,-146"/>
</g>
<g id="clust13" class="cluster">
<title>cluster_AppRoutingModule_exports</title>
<polygon fill="none" stroke="#000000" points="2053,-146 2053,-198 2171,-198 2171,-146 2053,-146"/>
</g>
<!-- AppComponent -->
<g id="node1" class="node">
<title>AppComponent</title>
<polygon fill="#ffffb3" stroke="#000000" points="577.9399,-122 472.0601,-122 472.0601,-86 577.9399,-86 577.9399,-122"/>
<text text-anchor="middle" x="525" y="-99.8" font-family="Times,serif" font-size="14.00" fill="#000000">AppComponent</text>
</g>
<!-- AppModule -->
<g id="node4" class="node">
<title>AppModule</title>
<polygon fill="#8dd3c7" stroke="#000000" points="1046.6571,-190 1043.6571,-194 1022.6571,-194 1019.6571,-190 963.3429,-190 963.3429,-154 1046.6571,-154 1046.6571,-190"/>
<text text-anchor="middle" x="1005" y="-167.8" font-family="Times,serif" font-size="14.00" fill="#000000">AppModule</text>
</g>
<!-- AppComponent&#45;&gt;AppModule -->
<g id="edge1" class="edge">
<title>AppComponent&#45;&gt;AppModule</title>
<path fill="none" stroke="#000000" d="M525,-122.0348C525,-141.5762 525,-170 525,-170 525,-170 953.2428,-170 953.2428,-170"/>
<polygon fill="#000000" stroke="#000000" points="953.2429,-173.5001 963.2428,-170 953.2428,-166.5001 953.2429,-173.5001"/>
</g>
<!-- UserFormComponent -->
<g id="node2" class="node">
<title>UserFormComponent</title>
<polygon fill="#ffffb3" stroke="#000000" points="454.0926,-122 315.9074,-122 315.9074,-86 454.0926,-86 454.0926,-122"/>
<text text-anchor="middle" x="385" y="-99.8" font-family="Times,serif" font-size="14.00" fill="#000000">UserFormComponent</text>
</g>
<!-- UserFormComponent&#45;&gt;AppModule -->
<g id="edge2" class="edge">
<title>UserFormComponent&#45;&gt;AppModule</title>
<path fill="none" stroke="#000000" d="M385,-122.2843C385,-143.3211 385,-175 385,-175 385,-175 952.8723,-175 952.8723,-175"/>
<polygon fill="#000000" stroke="#000000" points="952.8724,-178.5001 962.8723,-175 952.8723,-171.5001 952.8724,-178.5001"/>
</g>
<!-- ChartComponent -->
<g id="node3" class="node">
<title>ChartComponent</title>
<polygon fill="#ffffb3" stroke="#000000" points="298.4356,-122 185.5644,-122 185.5644,-86 298.4356,-86 298.4356,-122"/>
<text text-anchor="middle" x="242" y="-99.8" font-family="Times,serif" font-size="14.00" fill="#000000">ChartComponent</text>
</g>
<!-- ChartComponent&#45;&gt;AppModule -->
<g id="edge3" class="edge">
<title>ChartComponent&#45;&gt;AppModule</title>
<path fill="none" stroke="#000000" d="M242,-122.0109C242,-144.4852 242,-180 242,-180 242,-180 953.1639,-180 953.1639,-180"/>
<polygon fill="#000000" stroke="#000000" points="953.1639,-183.5001 963.1639,-180 953.1638,-176.5001 953.1639,-183.5001"/>
</g>
<!-- AppComponent  -->
<g id="node15" class="node">
<title>AppComponent </title>
<polygon fill="#80b1d3" stroke="#000000" points="1059.439,-258 950.561,-258 950.561,-222 1059.439,-222 1059.439,-258"/>
<text text-anchor="middle" x="1005" y="-235.8" font-family="Times,serif" font-size="14.00" fill="#000000">AppComponent </text>
</g>
<!-- AppModule&#45;&gt;AppComponent  -->
<g id="edge14" class="edge">
<title>AppModule&#45;&gt;AppComponent </title>
<path fill="none" stroke="#000000" stroke-dasharray="1,5" d="M1005,-190.2228C1005,-190.2228 1005,-211.7269 1005,-211.7269"/>
<polygon fill="#000000" stroke="#000000" points="1001.5001,-211.7269 1005,-221.7269 1008.5001,-211.727 1001.5001,-211.7269"/>
</g>
<!-- BrowserModule -->
<g id="node5" class="node">
<title>BrowserModule</title>
<polygon fill="#8dd3c7" stroke="#000000" points="1874.4734,-122 1871.4734,-126 1850.4734,-126 1847.4734,-122 1767.5266,-122 1767.5266,-86 1874.4734,-86 1874.4734,-122"/>
<text text-anchor="middle" x="1821" y="-99.8" font-family="Times,serif" font-size="14.00" fill="#000000">BrowserModule</text>
</g>
<!-- BrowserModule&#45;&gt;AppModule -->
<g id="edge4" class="edge">
<title>BrowserModule&#45;&gt;AppModule</title>
<path fill="none" stroke="#000000" d="M1821,-122.0109C1821,-144.4852 1821,-180 1821,-180 1821,-180 1056.87,-180 1056.87,-180"/>
<polygon fill="#000000" stroke="#000000" points="1056.87,-176.5001 1046.87,-180 1056.8699,-183.5001 1056.87,-176.5001"/>
</g>
<!-- AppRoutingModule -->
<g id="node6" class="node">
<title>AppRoutingModule</title>
<polygon fill="#8dd3c7" stroke="#000000" points="2021.2744,-122 2018.2744,-126 1997.2744,-126 1994.2744,-122 1892.7256,-122 1892.7256,-86 2021.2744,-86 2021.2744,-122"/>
<text text-anchor="middle" x="1957" y="-99.8" font-family="Times,serif" font-size="14.00" fill="#000000">AppRoutingModule</text>
</g>
<!-- AppRoutingModule&#45;&gt;AppModule -->
<g id="edge5" class="edge">
<title>AppRoutingModule&#45;&gt;AppModule</title>
<path fill="none" stroke="#000000" d="M1957,-122.3802C1957,-146.2785 1957,-185 1957,-185 1957,-185 1056.826,-185 1056.826,-185"/>
<polygon fill="#000000" stroke="#000000" points="1056.826,-181.5001 1046.826,-185 1056.826,-188.5001 1056.826,-181.5001"/>
</g>
<!-- RouterModule  -->
<g id="node18" class="node">
<title>RouterModule </title>
<polygon fill="#fb8072" stroke="#000000" points="2162.6523,-190 2061.3477,-190 2061.3477,-154 2162.6523,-154 2162.6523,-190"/>
<text text-anchor="middle" x="2112" y="-167.8" font-family="Times,serif" font-size="14.00" fill="#000000">RouterModule </text>
</g>
<!-- AppRoutingModule&#45;&gt;RouterModule  -->
<g id="edge17" class="edge">
<title>AppRoutingModule&#45;&gt;RouterModule </title>
<path fill="none" stroke="#000000" stroke-dasharray="5,2" d="M2021.3874,-110C2063.9734,-110 2112,-110 2112,-110 2112,-110 2112,-143.7333 2112,-143.7333"/>
<polygon fill="#000000" stroke="#000000" points="2108.5001,-143.7333 2112,-153.7333 2115.5001,-143.7333 2108.5001,-143.7333"/>
</g>
<!-- ReactiveFormsModule -->
<g id="node7" class="node">
<title>ReactiveFormsModule</title>
<polygon fill="#8dd3c7" stroke="#000000" points="1615.3047,-122 1612.3047,-126 1591.3047,-126 1588.3047,-122 1470.6953,-122 1470.6953,-86 1615.3047,-86 1615.3047,-122"/>
<text text-anchor="middle" x="1543" y="-99.8" font-family="Times,serif" font-size="14.00" fill="#000000">ReactiveFormsModule</text>
</g>
<!-- ReactiveFormsModule&#45;&gt;AppModule -->
<g id="edge6" class="edge">
<title>ReactiveFormsModule&#45;&gt;AppModule</title>
<path fill="none" stroke="#000000" d="M1543,-122.0348C1543,-141.5762 1543,-170 1543,-170 1543,-170 1056.7683,-170 1056.7683,-170"/>
<polygon fill="#000000" stroke="#000000" points="1056.7683,-166.5001 1046.7683,-170 1056.7682,-173.5001 1056.7683,-166.5001"/>
</g>
<!-- BrowserAnimationsModule -->
<g id="node8" class="node">
<title>BrowserAnimationsModule</title>
<polygon fill="#8dd3c7" stroke="#000000" points="1453.3019,-122 1450.3019,-126 1429.3019,-126 1426.3019,-122 1280.6981,-122 1280.6981,-86 1453.3019,-86 1453.3019,-122"/>
<text text-anchor="middle" x="1367" y="-99.8" font-family="Times,serif" font-size="14.00" fill="#000000">BrowserAnimationsModule</text>
</g>
<!-- BrowserAnimationsModule&#45;&gt;AppModule -->
<g id="edge7" class="edge">
<title>BrowserAnimationsModule&#45;&gt;AppModule</title>
<path fill="none" stroke="#000000" d="M1367,-122.302C1367,-140.2699 1367,-165 1367,-165 1367,-165 1056.8796,-165 1056.8796,-165"/>
<polygon fill="#000000" stroke="#000000" points="1056.8797,-161.5001 1046.8796,-165 1056.8796,-168.5001 1056.8797,-161.5001"/>
</g>
<!-- MatButtonModule -->
<g id="node9" class="node">
<title>MatButtonModule</title>
<polygon fill="#8dd3c7" stroke="#000000" points="1263.2176,-122 1260.2176,-126 1239.2176,-126 1236.2176,-122 1142.7824,-122 1142.7824,-86 1263.2176,-86 1263.2176,-122"/>
<text text-anchor="middle" x="1203" y="-99.8" font-family="Times,serif" font-size="14.00" fill="#000000">MatButtonModule</text>
</g>
<!-- MatButtonModule&#45;&gt;AppModule -->
<g id="edge8" class="edge">
<title>MatButtonModule&#45;&gt;AppModule</title>
<path fill="none" stroke="#000000" d="M1203,-122.027C1203,-138.3976 1203,-160 1203,-160 1203,-160 1056.9907,-160 1056.9907,-160"/>
<polygon fill="#000000" stroke="#000000" points="1056.9907,-156.5001 1046.9907,-160 1056.9907,-163.5001 1056.9907,-156.5001"/>
</g>
<!-- MatInputModule -->
<g id="node10" class="node">
<title>MatInputModule</title>
<polygon fill="#8dd3c7" stroke="#000000" points="1124.6513,-122 1121.6513,-126 1100.6513,-126 1097.6513,-122 1013.3487,-122 1013.3487,-86 1124.6513,-86 1124.6513,-122"/>
<text text-anchor="middle" x="1069" y="-99.8" font-family="Times,serif" font-size="14.00" fill="#000000">MatInputModule</text>
</g>
<!-- MatInputModule&#45;&gt;AppModule -->
<g id="edge9" class="edge">
<title>MatInputModule&#45;&gt;AppModule</title>
<path fill="none" stroke="#000000" d="M1030.0014,-122.2228C1030.0014,-122.2228 1030.0014,-143.7269 1030.0014,-143.7269"/>
<polygon fill="#000000" stroke="#000000" points="1026.5015,-143.7269 1030.0014,-153.7269 1033.5015,-143.727 1026.5015,-143.7269"/>
</g>
<!-- MatCardModule -->
<g id="node11" class="node">
<title>MatCardModule</title>
<polygon fill="#8dd3c7" stroke="#000000" points="995.8118,-122 992.8118,-126 971.8118,-126 968.8118,-122 886.1882,-122 886.1882,-86 995.8118,-86 995.8118,-122"/>
<text text-anchor="middle" x="941" y="-99.8" font-family="Times,serif" font-size="14.00" fill="#000000">MatCardModule</text>
</g>
<!-- MatCardModule&#45;&gt;AppModule -->
<g id="edge10" class="edge">
<title>MatCardModule&#45;&gt;AppModule</title>
<path fill="none" stroke="#000000" d="M979.4138,-122.2228C979.4138,-122.2228 979.4138,-143.7269 979.4138,-143.7269"/>
<polygon fill="#000000" stroke="#000000" points="975.9138,-143.7269 979.4138,-153.7269 982.9138,-143.727 975.9138,-143.7269"/>
</g>
<!-- MatIconModule -->
<g id="node12" class="node">
<title>MatIconModule</title>
<polygon fill="#8dd3c7" stroke="#000000" points="868.4748,-122 865.4748,-126 844.4748,-126 841.4748,-122 761.5252,-122 761.5252,-86 868.4748,-86 868.4748,-122"/>
<text text-anchor="middle" x="815" y="-99.8" font-family="Times,serif" font-size="14.00" fill="#000000">MatIconModule</text>
</g>
<!-- MatIconModule&#45;&gt;AppModule -->
<g id="edge11" class="edge">
<title>MatIconModule&#45;&gt;AppModule</title>
<path fill="none" stroke="#000000" d="M815,-122.027C815,-138.3976 815,-160 815,-160 815,-160 953.3037,-160 953.3037,-160"/>
<polygon fill="#000000" stroke="#000000" points="953.3037,-163.5001 963.3037,-160 953.3037,-156.5001 953.3037,-163.5001"/>
</g>
<!-- MatFormFieldModule -->
<g id="node13" class="node">
<title>MatFormFieldModule</title>
<polygon fill="#8dd3c7" stroke="#000000" points="743.712,-122 740.712,-126 719.712,-126 716.712,-122 602.288,-122 602.288,-86 743.712,-86 743.712,-122"/>
<text text-anchor="middle" x="673" y="-99.8" font-family="Times,serif" font-size="14.00" fill="#000000">MatFormFieldModule</text>
</g>
<!-- MatFormFieldModule&#45;&gt;AppModule -->
<g id="edge12" class="edge">
<title>MatFormFieldModule&#45;&gt;AppModule</title>
<path fill="none" stroke="#000000" d="M673,-122.302C673,-140.2699 673,-165 673,-165 673,-165 953.2881,-165 953.2881,-165"/>
<polygon fill="#000000" stroke="#000000" points="953.2882,-168.5001 963.2881,-165 953.2881,-161.5001 953.2882,-168.5001"/>
</g>
<!-- MatSelectModule -->
<g id="node14" class="node">
<title>MatSelectModule</title>
<polygon fill="#8dd3c7" stroke="#000000" points="1749.3076,-122 1746.3076,-126 1725.3076,-126 1722.3076,-122 1632.6924,-122 1632.6924,-86 1749.3076,-86 1749.3076,-122"/>
<text text-anchor="middle" x="1691" y="-99.8" font-family="Times,serif" font-size="14.00" fill="#000000">MatSelectModule</text>
</g>
<!-- MatSelectModule&#45;&gt;AppModule -->
<g id="edge13" class="edge">
<title>MatSelectModule&#45;&gt;AppModule</title>
<path fill="none" stroke="#000000" d="M1691,-122.2843C1691,-143.3211 1691,-175 1691,-175 1691,-175 1056.8797,-175 1056.8797,-175"/>
<polygon fill="#000000" stroke="#000000" points="1056.8798,-171.5001 1046.8797,-175 1056.8797,-178.5001 1056.8798,-171.5001"/>
</g>
<!-- StorageService -->
<g id="node16" class="node">
<title>StorageService</title>
<ellipse fill="#fdb462" stroke="#000000" cx="93" cy="-104" rx="69.4781" ry="18"/>
<text text-anchor="middle" x="93" y="-99.8" font-family="Times,serif" font-size="14.00" fill="#000000">StorageService</text>
</g>
<!-- StorageService&#45;&gt;AppModule -->
<g id="edge15" class="edge">
<title>StorageService&#45;&gt;AppModule</title>
<path fill="none" stroke="#000000" d="M93,-122.3802C93,-146.2785 93,-185 93,-185 93,-185 953.1429,-185 953.1429,-185"/>
<polygon fill="#000000" stroke="#000000" points="953.1429,-188.5001 963.1429,-185 953.1429,-181.5001 953.1429,-188.5001"/>
</g>
<!-- RouterModule.forRoot(args) -->
<g id="node17" class="node">
<title>RouterModule.forRoot(args)</title>
<polygon fill="#8dd3c7" stroke="#000000" points="2364.8419,-190 2361.8419,-194 2340.8419,-194 2337.8419,-190 2187.1581,-190 2187.1581,-154 2364.8419,-154 2364.8419,-190"/>
<text text-anchor="middle" x="2276" y="-167.8" font-family="Times,serif" font-size="14.00" fill="#000000">RouterModule.forRoot(args)</text>
</g>
<!-- RouterModule.forRoot(args)&#45;&gt;AppRoutingModule -->
<g id="edge16" class="edge">
<title>RouterModule.forRoot(args)&#45;&gt;AppRoutingModule</title>
<path fill="none" stroke="#000000" d="M2276,-153.7079C2276,-131.7943 2276,-98 2276,-98 2276,-98 2031.5544,-98 2031.5544,-98"/>
<polygon fill="#000000" stroke="#000000" points="2031.5544,-94.5001 2021.5544,-98 2031.5544,-101.5001 2031.5544,-94.5001"/>
</g>
</g>
</svg>
